<svg xmlns="http://www.w3.org/2000/svg" viewBox="0 0 2347.84 1000"><defs><style>.cls-1{fill:#df151a;}.cls-2{fill:#fff;}</style></defs><title>VPLogo_S_DarkBG_Duo</title><g id="Layer_2" data-name="Layer 2"><g id="Outlines"><g id="Stacked_Outlines_" data-name="Stacked [Outlines]"><g id="Mark"><path id="P" class="cls-1" d="M540.25,210.5V61.91L433,0,0,250V750L176.46,851.88,158.3,742.34,85.79,700.47V299.53L433,99.06l21.45,12.38V839l85.79-49.53V542.89H737.34V324.29ZM651.56,457.11H540.25V309.56l111.31,64.26Z"/><polygon id="V" class="cls-2" points="583.14 86.67 583.14 185.73 780.24 299.53 780.24 700.47 433.01 900.94 309.62 829.7 411.57 160.97 320.63 213.47 267.61 579.52 214.47 274.76 128.68 324.29 224.65 877.77 433.01 1000 866.02 750 866.02 250 583.14 86.67"/></g><path class="cls-2" d="M940.52,103.4h65.38l34.8,240.44,34.8-240.44h63.28l-65.91,370.15h-66.44Z"/><path class="cls-2" d="M1199.42,102.34H1268l70.13,370.16h-64.33l-12.12-73.3h-58.53l-11.6,73.3h-62.22Zm52.73,238.86-19.51-121.8-20,121.8Z"/><path class="cls-2" d="M1357.6,103.4H1424c65.91,0,113.89,34.8,113.89,117.58v4.75c0,48-19,78.56-43.23,97l49.56,149.75h-68.55l-41.65-128.66h-12.13V472.5H1357.6Zm67.49,182.44c28,0,48.51-16.35,48.51-59.58V222c0-46.4-22.14-58.53-50.09-58.53h-1.58V285.84Z"/><path class="cls-2" d="M1567.46,103.4h64.33V411.33h68V472.5H1567.46Z"/><path class="cls-2" d="M1774.68,102.34h68.55l70.13,370.16H1849l-12.13-73.3h-58.53l-11.6,73.3h-62.22Zm52.73,238.86L1807.9,219.4l-20,121.8Z"/><path class="cls-2" d="M1932.87,103.4H1993l64.85,186.66V103.4h62.75V472.5h-56.95l-68-195.63V472.5h-62.74Z"/><path class="cls-2" d="M2158.54,103.4h60.11c82.26,0,129.19,59.58,129.19,178.22v12.65c0,118.64-46.93,178.23-129.19,178.23h-60.11Zm67,310c30.58,0,56.95-26.89,56.95-119.17V281.62c0-92.27-26.37-119.17-56.95-119.17h-2.64v251Z"/><path class="cls-2" d="M1035.69,527.79h57.48c70.13,0,119.16,38,119.16,124.43v1.06c0,83.31-46.4,122.86-111.78,127.6H1100v116h-64.33Zm64.86,193.51c26.89-1.58,47.45-21.09,47.45-65.91v-1.06c0-46.93-17.92-67-45.87-67H1100V721.3Z"/><path class="cls-2" d="M1238.7,527.79H1303V835.72h68v61.16H1238.7Z"/><path class="cls-2" d="M1445.92,526.73h68.55l70.13,370.15h-64.33l-12.13-73.29h-58.53L1438,896.88h-62.22Zm52.73,238.86-19.51-121.8-20,121.8Z"/><path class="cls-2" d="M1622.56,589h-45.35V527.79h155V589h-45.35V896.88h-64.33Z"/><path class="cls-2" d="M1760.18,527.79h64.33V896.88h-64.33Z"/><path class="cls-2" d="M1863.53,527.79h60.11l64.85,186.65V527.79h62.75V896.88h-56.95l-68-195.62V896.88h-62.74Z"/><path class="cls-2" d="M2082.87,718.66V706c0-119.17,50.62-180.86,123.39-180.86,19.51,0,35.85,4.22,49,10.54v67c-15.82-9.49-30.06-15.82-46.93-15.82-36.91,0-60.11,36.91-60.11,116.53V721.3c0,96.49,28.47,118.64,54.83,118.64a25.72,25.72,0,0,0,5.8-.53V745h-31.63V687.55h90.16V883.7c-23.2,10-42.18,15.82-67,15.82C2136.13,899.52,2082.87,847.32,2082.87,718.66Z"/></g></g></g></svg>